Coordinates
version=1
nRows=23
nColumns=30
inDegrees=yes

Units are S.I. units (second, meters, Newtons, ...)
Angles are in degrees.

endheader
time	floatyaw	floatroll	floatpitch	floatx	floaty	floatz	pro_sup_l	deviation_l	flexion_l	cmc_flexion_l	cmc_abduction_l	mp_flexion_l	ip_flexion_l	2mcp_flexion_l	2mcp_abduction_l	2pm_flexion_l	2md_flexion_l	3mcp_flexion_l	3mcp_abduction_l	3pm_flexion_l	3md_flexion_l	4mcp_flexion_l	4mcp_abduction_l	4pm_flexion_l	4md_flexion_l	5mcp_flexion_l	5mcp_abduction_l	5pm_flexion_l	5md_flexion_l
-0.495000	-3.995636	-4.876138	96.430707	-0.108006	-0.184324	-0.040769	85.974659	0.859673	-3.722834	15.023986	2.291963	-22.289552	-34.479519	39.182555	9.522056	48.792998	34.723664	22.344619	5.043887	47.934297	33.705440	10.587253	-5.221488	62.804284	43.567246	1.902750	-7.960197	63.796675	43.786072
-0.485000	-3.995636	-4.876138	96.430707	-0.108029	-0.184320	-0.040781	85.966008	0.870801	-3.723676	15.016156	2.261478	-22.302814	-34.497455	39.169843	9.487668	48.793678	34.714922	22.352561	5.041467	47.953648	33.702131	10.598290	-5.222411	62.802997	43.556838	1.892868	-7.944455	63.795778	43.778064
-0.475000	-3.995636	-4.876138	96.430707	-0.108055	-0.184320	-0.040787	85.965193	0.885065	-3.734527	15.012708	2.230175	-22.311447	-34.511973	39.153950	9.452176	48.799275	34.707573	22.372157	5.037032	47.970724	33.692858	10.620752	-5.224035	62.799730	43.542363	1.877731	-7.916369	63.774194	43.767194
-0.465000	-3.995636	-4.876138	96.430707	-0.108085	-0.184323	-0.040788	85.970582	0.901412	-3.752978	15.010727	2.197925	-22.316575	-34.521982	39.139732	9.414435	48.808386	34.700827	22.400234	5.030730	47.982620	33.676840	10.650884	-5.224215	62.794281	43.524502	1.854538	-7.871695	63.730835	43.753248
-0.455000	-3.995636	-4.876138	96.430707	-0.108117	-0.184324	-0.040783	85.977459	0.916704	-3.773497	15.006620	2.165195	-22.319569	-34.527311	39.131169	9.375918	48.817440	34.693285	22.430206	5.023685	47.988303	33.656037	10.680852	-5.221615	62.788825	43.506242	1.825105	-7.814268	63.673198	43.736864
-0.445000	-3.995636	-4.876138	96.430707	-0.108150	-0.184319	-0.040774	85.980826	0.927366	-3.789445	14.997178	2.133981	-22.321769	-34.528962	39.129987	9.340797	48.822816	34.683979	22.455230	5.017656	47.989332	33.634707	10.702835	-5.216554	62.786693	43.491419	1.794987	-7.753910	63.614704	43.719277
-0.435000	-3.995636	-4.876138	96.430707	-0.108181	-0.184306	-0.040760	85.978386	0.931193	-3.795257	14.980239	2.108377	-22.324543	-34.529071	39.134841	9.313793	48.823247	34.673341	22.471326	5.014429	47.989632	33.617871	10.713433	-5.210843	62.790611	43.482687	1.771415	-7.701577	63.569209	43.701762
-0.425000	-3.995636	-4.876138	96.430707	-0.108207	-0.184281	-0.040745	85.972031	0.928219	-3.787867	14.954952	2.094051	-22.329286	-34.530286	39.140996	9.296841	48.820855	34.663439	22.478990	5.014980	47.994002	33.609317	10.715541	-5.206653	62.801264	43.480130	1.761091	-7.664416	63.544889	43.684807
-0.415000	-3.995636	-4.876138	96.430707	-0.108225	-0.184242	-0.040726	85.967008	0.920098	-3.767026	14.921840	2.096343	-22.337001	-34.534569	39.140841	9.286379	48.820099	34.657315	22.482753	5.018628	48.005936	33.610082	10.716404	-5.205132	62.816649	43.481249	1.768313	-7.642788	63.540178	43.667344
-0.405000	-3.995636	-4.876138	96.430707	-0.108229	-0.184185	-0.040702	85.969105	0.908372	-3.734831	14.882854	2.117552	-22.347639	-34.541986	39.125692	9.273001	48.825417	34.657759	22.489120	5.022699	48.025970	33.618222	10.723130	-5.205653	62.832441	43.482246	1.793629	-7.630018	63.543784	43.646645
-0.395000	-3.995636	-4.876138	96.430707	-0.108214	-0.184106	-0.040666	85.981275	0.892809	-3.694981	14.841351	2.154860	-22.359833	-34.550437	39.088763	9.244292	48.839113	34.666166	22.503746	5.023314	48.051516	33.629887	10.738637	-5.206165	62.843447	43.479843	1.833528	-7.614797	63.539288	43.619329
-0.385000	-3.995636	-4.876138	96.430707	-0.108171	-0.184002	-0.040613	86.001484	0.871146	-3.652131	14.801722	2.200790	-22.371662	-34.556973	39.028292	9.190074	48.860685	34.681938	22.528970	5.017334	48.078262	33.641046	10.760836	-5.204421	62.845917	43.472638	1.881872	-7.585592	63.512823	43.583306
-0.375000	-3.995636	-4.876138	96.430707	-0.108093	-0.183869	-0.040535	86.022814	0.840709	-3.611330	14.768288	2.247083	-22.382278	-34.560356	38.949086	9.107598	48.887810	34.702651	22.562838	5.004489	48.102317	33.648902	10.785588	-5.199302	62.839692	43.461290	1.933140	-7.535790	63.460412	43.539582
-0.365000	-3.995636	-4.876138	96.430707	-0.107972	-0.183704	-0.040427	86.035556	0.801169	-3.577314	14.743440	2.290799	-22.393330	-34.563310	38.860862	9.003706	48.918379	34.724985	22.600260	4.988175	48.122003	33.652447	10.811099	-5.191293	62.828703	43.447537	1.986454	-7.467726	63.390656	43.492412
-0.355000	-3.995636	-4.876138	96.430707	-0.107794	-0.183501	-0.040283	86.030069	0.756584	-3.553252	14.725613	2.339661	-22.409001	-34.572609	38.772954	8.892105	48.952620	34.746332	22.635901	4.973938	48.138598	33.652292	10.840290	-5.181464	62.818889	43.432724	2.048789	-7.393604	63.320174	43.446944
-0.345000	-3.995636	-4.876138	96.430707	-0.107544	-0.183246	-0.040099	85.999138	0.714682	-3.538717	14.708351	2.413561	-22.434302	-34.596332	38.687049	8.786589	48.994301	34.766628	22.667295	4.966227	48.156022	33.650393	10.879538	-5.169571	62.814425	43.416883	2.136163	-7.332114	63.263352	43.405167
-0.335000	-3.995636	-4.876138	96.430707	-0.107197	-0.182920	-0.039867	85.939217	0.682247	-3.527252	14.682073	2.541147	-22.472386	-34.639490	38.591466	8.693633	49.050194	34.789594	22.696341	4.965514	48.180021	33.650154	10.935352	-5.153134	62.814927	43.399122	2.272175	-7.301317	63.222034	43.362453
-0.325000	-3.995636	-4.876138	96.430707	-0.106727	-0.182496	-0.039578	85.850704	0.657730	-3.504700	14.639314	2.753255	-22.522042	-34.700529	38.460676	8.608279	49.127404	34.822332	22.728136	4.967934	48.217259	33.656716	11.011852	-5.129022	62.816095	43.379172	2.483816	-7.310467	63.181250	43.307047
-0.315000	-3.995636	-4.876138	96.430707	-0.106103	-0.181942	-0.039221	85.737567	0.624939	-3.450008	14.582013	3.076690	-22.576383	-34.770982	38.261376	8.514906	49.229266	34.872791	22.767954	4.967853	48.274217	33.676420	11.110626	-5.096850	62.813337	43.358729	2.795051	-7.354306	63.113568	43.223234
-0.305000	-3.995636	-4.876138	96.430707	-0.105291	-0.181223	-0.038781	85.605904	0.552640	-3.340011	14.527160	3.530746	-22.623395	-34.838877	37.962322	8.391306	49.352038	34.945922	22.818837	4.961412	48.355118	33.714353	11.232687	-5.061289	62.804685	43.340692	3.219558	-7.412270	62.990061	43.096887
-0.295000	-3.995636	-4.876138	96.430707	-0.104248	-0.180300	-0.038237	85.460126	0.402549	-3.158010	14.506748	4.125723	-22.648652	-34.894349	37.542430	8.213162	49.485448	35.040706	22.882038	4.948164	48.458464	33.770024	11.381166	-5.030601	62.789021	43.325475	3.755354	-7.452669	62.792609	42.920756
-0.285000	-3.995636	-4.876138	96.430707	-0.102913	-0.179130	-0.037558	85.295844	0.143383	-2.903472	14.560477	4.860855	-22.639836	-34.934430	36.992930	7.957559	49.618841	35.150329	22.960297	4.929336	48.573567	33.833264	11.563263	-5.011613	62.759667	43.306094	4.384851	-7.439966	62.521405	42.696638
-0.275000	-3.995636	-4.876138	96.430707	-0.101204	-0.177672	-0.036706	85.090424	-0.235256	-2.598673	14.723501	5.720618	-22.592047	-34.964642	36.314294	7.606493	49.750997	35.265978	23.061568	4.904020	48.680464	33.883773	11.790638	-5.004601	62.698881	43.265947	5.082546	-7.342591	62.193575	42.432805
